<svg width="24" height="24" viewBox="0 0 24 24" fill="none" xmlns="http://www.w3.org/2000/svg">
<g clip-path="url(#clip0_972_14599)">
<path d="M11.7245 7.51042C12.946 7.51042 14.097 8.05192 14.9405 8.89842V8.90092C14.9405 8.49442 15.214 8.18692 15.592 8.18692H15.688C16.2845 8.18692 16.404 8.74942 16.404 8.92692L16.4065 15.2444C16.365 15.6584 16.834 15.8724 17.0945 15.6064C18.107 14.5649 19.3205 10.2469 16.464 7.74692C13.8 5.41342 10.2245 5.79892 8.32351 7.10892C6.30301 8.50492 5.01151 11.5884 6.26601 14.4864C7.63601 17.6459 11.5525 18.5884 13.8835 17.6484C15.0635 17.1719 15.6075 18.7649 14.381 19.2864C12.5325 20.0749 7.38101 19.9944 4.97501 15.8279C3.34951 13.0134 3.43551 8.06242 7.74851 5.49742C11.045 3.53392 15.3945 4.07792 18.0165 6.81542C20.7565 9.67992 20.598 15.0394 17.923 17.1229C16.7115 18.0704 14.9125 17.1489 14.9255 15.7684L14.912 15.3184C14.0685 16.1539 12.946 16.6439 11.7245 16.6439C9.30801 16.6439 7.18051 14.5159 7.18051 12.1019C7.18051 9.66192 9.30801 7.51142 11.7245 7.51142V7.51042ZM14.764 11.9274C14.6725 10.1589 13.36 9.09392 11.774 9.09392H11.714C9.88601 9.09392 8.87051 10.5339 8.87051 12.1664C8.87051 13.9969 10.097 15.1529 11.7065 15.1529C13.503 15.1529 14.6825 13.8384 14.7685 12.2834L14.764 11.9274Z" fill="url(#paint0_linear_972_14599)"/>
</g>
<defs>
<linearGradient id="paint0_linear_972_14599" x1="14.9253" y1="19.7002" x2="14.9253" y2="4.35012" gradientUnits="userSpaceOnUse">
<stop stop-color="#DC0023"/>
<stop offset="1" stop-color="#FF0049"/>
</linearGradient>
<clipPath id="clip0_972_14599">
<rect width="16" height="16" fill="white" transform="translate(4.00049 4)"/>
</clipPath>
</defs>
</svg>
