<svg width="44" height="44" viewBox="0 0 44 44" fill="none" xmlns="http://www.w3.org/2000/svg">
<path fill-rule="evenodd" clip-rule="evenodd" d="M20.4979 1.15484C21.7355 0.44031 23.2603 0.440309 24.4979 1.15484L39.5504 9.84544C40.788 10.56 41.5504 11.8805 41.5504 13.3095L41.5504 30.6907C41.5504 32.1198 40.788 33.4403 39.5504 34.1548L24.4979 42.8454C23.2603 43.56 21.7355 43.56 20.4979 42.8454L5.44531 34.1548C4.20771 33.4403 3.44531 32.1198 3.44531 30.6907L3.44532 13.3095C3.44532 11.8805 4.20771 10.56 5.44532 9.84544L20.4979 1.15484ZM25.2571 14.3492C24.8977 13.9299 24.2664 13.8813 23.8471 14.2407C23.4278 14.6002 23.3792 15.2315 23.7386 15.6508L28.3237 21H14.4979C13.9456 21 13.4979 21.4477 13.4979 22C13.4979 22.5523 13.9456 23 14.4979 23H28.3237L23.7386 28.3492C23.3792 28.7685 23.4278 29.3998 23.8471 29.7593C24.2664 30.1187 24.8977 30.0701 25.2571 29.6508L31.2571 22.6508C31.5781 22.2763 31.5781 21.7237 31.2571 21.3492L25.2571 14.3492Z" fill="url(#paint0_linear_972_14348)"/>
<defs>
<linearGradient id="paint0_linear_972_14348" x1="29.4615" y1="43.4521" x2="29.4615" y2="0.689739" gradientUnits="userSpaceOnUse">
<stop stop-color="#DC0023"/>
<stop offset="1" stop-color="#FF0049"/>
</linearGradient>
</defs>
</svg>
