<svg width="32" height="32" viewBox="0 0 32 32" fill="none" xmlns="http://www.w3.org/2000/svg">
<mask id="path-1-inside-1_206_18392" fill="white">
<path d="M18.0001 1.15455C16.7625 0.440019 15.2377 0.44002 14.0001 1.15455L4.14371 6.84515C2.9061 7.55968 2.14371 8.88019 2.14371 10.3092L2.14371 21.6905C2.14371 23.1195 2.9061 24.44 4.14371 25.1546L14.0001 30.8452C15.2377 31.5597 16.7625 31.5597 18.0001 30.8452L27.8565 25.1546C29.0941 24.44 29.8565 23.1195 29.8565 21.6905L29.8565 10.3093C29.8565 8.88019 29.0941 7.55968 27.8565 6.84515L18.0001 1.15455Z"/>
</mask>
<path d="M29.8565 10.3093H30.8565H29.8565ZM27.8565 6.84515L28.3565 5.97913L27.8565 6.84515ZM27.8565 25.1546L27.3565 24.2885L27.8565 25.1546ZM29.8565 21.6905H28.8565H29.8565ZM14.0001 30.8452L14.5001 29.9791L14.0001 30.8452ZM18.0001 30.8452L18.5001 31.7112L18.0001 30.8452ZM2.14371 21.6905H1.14371H2.14371ZM4.14371 25.1546L3.64371 26.0206L4.14371 25.1546ZM4.14371 6.84515L4.64371 7.71117L4.14371 6.84515ZM14.0001 1.15455L13.5001 0.288526L14.0001 1.15455ZM18.0001 1.15455L17.5001 2.02058L18.0001 1.15455ZM13.5001 0.288526L3.64371 5.97912L4.64371 7.71117L14.5001 2.02058L13.5001 0.288526ZM1.14371 10.3092L1.14371 21.6905H3.14371L3.14371 10.3092H1.14371ZM3.64371 26.0206L13.5001 31.7112L14.5001 29.9791L4.64371 24.2885L3.64371 26.0206ZM18.5001 31.7112L28.3565 26.0206L27.3565 24.2885L17.5001 29.9791L18.5001 31.7112ZM30.8565 21.6905L30.8565 10.3093H28.8565L28.8565 21.6905H30.8565ZM28.3565 5.97913L18.5001 0.288526L17.5001 2.02058L27.3565 7.71118L28.3565 5.97913ZM30.8565 10.3093C30.8565 8.52292 29.9035 6.87229 28.3565 5.97913L27.3565 7.71118C28.2847 8.24708 28.8565 9.23746 28.8565 10.3093H30.8565ZM28.3565 26.0206C29.9035 25.1274 30.8565 23.4768 30.8565 21.6905H28.8565C28.8565 22.7623 28.2847 23.7526 27.3565 24.2885L28.3565 26.0206ZM13.5001 31.7112C15.0471 32.6043 16.9531 32.6043 18.5001 31.7112L17.5001 29.9791C16.5719 30.515 15.4283 30.515 14.5001 29.9791L13.5001 31.7112ZM1.14371 21.6905C1.14371 23.4768 2.0967 25.1274 3.64371 26.0206L4.64371 24.2885C3.7155 23.7526 3.14371 22.7622 3.14371 21.6905H1.14371ZM3.64371 5.97912C2.0967 6.87229 1.14371 8.52292 1.14371 10.3092H3.14371C3.14371 9.23745 3.7155 8.24707 4.64371 7.71117L3.64371 5.97912ZM14.5001 2.02058C15.4283 1.48468 16.5719 1.48468 17.5001 2.02058L18.5001 0.288526C16.9531 -0.604639 15.0471 -0.604638 13.5001 0.288526L14.5001 2.02058Z" fill="url(#paint0_linear_206_18392)" mask="url(#path-1-inside-1_206_18392)"/>
<g clip-path="url(#clip0_206_18392)">
<path d="M16 8.72754V23.273M8.72729 16.0003H23.2727" stroke="url(#paint1_linear_206_18392)" stroke-width="1.8" stroke-linecap="round"/>
</g>
<defs>
<linearGradient id="paint0_linear_206_18392" x1="21.0646" y1="31.432" x2="21.0646" y2="0.669582" gradientUnits="userSpaceOnUse">
<stop stop-color="#DC0023"/>
<stop offset="1" stop-color="#FF0049"/>
</linearGradient>
<linearGradient id="paint1_linear_206_18392" x1="18.6582" y1="23.2971" x2="18.6582" y2="8.75162" gradientUnits="userSpaceOnUse">
<stop stop-color="#DC0023"/>
<stop offset="1" stop-color="#FF0049"/>
</linearGradient>
<clipPath id="clip0_206_18392">
<rect width="17.4545" height="17.4545" fill="white" transform="translate(7.27274 7.27295)"/>
</clipPath>
</defs>
</svg>
