<svg width="24" height="24" viewBox="0 0 24 24" fill="none" xmlns="http://www.w3.org/2000/svg">
<path fill-rule="evenodd" clip-rule="evenodd" d="M11.1 5.0001C11.1 4.50304 11.5029 4.1001 12 4.1001C16.363 4.1001 19.9 7.63705 19.9 12.0001C19.9 12.4972 19.4971 12.9001 19 12.9001C18.5029 12.9001 18.1 12.4972 18.1 12.0001C18.1 8.63116 15.3689 5.9001 12 5.9001C11.5029 5.9001 11.1 5.49715 11.1 5.0001ZM14.3168 15.0182L13.8935 15.6531C13.8091 15.7798 13.6973 15.8879 13.5501 15.9268C13.0678 16.0543 11.7873 16.1118 9.83778 14.1623C7.88828 12.2128 7.94582 10.9323 8.07326 10.45C8.11217 10.3028 8.2203 10.191 8.34702 10.1066L8.9819 9.6833C9.45458 9.36818 9.58231 8.72954 9.26719 8.25686L8.06811 6.45825C7.79306 6.04567 7.26282 5.88805 6.80705 6.08338L6.26615 6.31519C5.85525 6.49129 5.52006 6.80734 5.32013 7.2072C5.1531 7.54126 5.02364 7.89305 5.0061 8.26613C4.95082 9.44186 5.20863 12.3385 8.43512 15.565C11.6616 18.7915 14.5582 19.0493 15.734 18.994C16.107 18.9765 16.4588 18.847 16.7929 18.68C17.1928 18.48 17.5088 18.1449 17.6849 17.7339L17.9167 17.193C18.1121 16.7373 17.9544 16.207 17.5418 15.932L15.7432 14.7329C15.2706 14.4178 14.6319 14.5455 14.3168 15.0182ZM12 7.1001C11.5029 7.1001 11.1 7.50304 11.1 8.0001C11.1 8.49715 11.5029 8.9001 12 8.9001C13.7121 8.9001 15.1 10.288 15.1 12.0001C15.1 12.4972 15.5029 12.9001 16 12.9001C16.4971 12.9001 16.9 12.4972 16.9 12.0001C16.9 9.2939 14.7062 7.1001 12 7.1001Z" fill="url(#paint0_linear_206_13804)"/>
<defs>
<linearGradient id="paint0_linear_206_13804" x1="15.1729" y1="19.0248" x2="15.1729" y2="4.12477" gradientUnits="userSpaceOnUse">
<stop stop-color="#DC0023"/>
<stop offset="1" stop-color="#FF0049"/>
</linearGradient>
</defs>
</svg>
