<svg width="500" height="227" viewBox="0 0 500 227" fill="none" xmlns="http://www.w3.org/2000/svg">
<path fill-rule="evenodd" clip-rule="evenodd" d="M7.12084e-06 165.725L0 70.4717C-1.20414e-07 67.685 3.01285 65.9433 5.42312 67.3367L18.1223 74.6779C19.2405 75.3244 19.9295 76.5188 19.93 77.8117L19.9571 154.132C19.9582 157.365 21.6808 160.351 24.4763 161.967L94.902 202.679C97.6975 204.295 101.142 204.296 103.938 202.681L155.805 172.721C156.924 172.075 158.301 172.076 159.419 172.722L172.133 180.071C174.543 181.465 174.543 184.948 172.133 186.342L103.898 225.787C101.101 227.404 97.656 227.404 94.8595 225.787L4.51928 173.563C1.72275 171.946 4.88975e-06 168.958 7.12084e-06 165.725ZM193.334 143.246C195.745 144.639 198.757 142.898 198.757 140.111V61.2751C198.757 58.0418 197.035 55.0541 194.238 53.4374L103.898 1.21249C101.101 -0.404162 97.656 -0.404162 94.8594 1.21248L12.5232 48.8104C10.113 50.2037 10.113 53.6871 12.5232 55.0805L25.198 62.4077C26.3162 63.0541 27.6939 63.0543 28.8123 62.4083L94.8358 24.272C97.632 22.6569 101.076 22.6575 103.872 24.2736L174.297 64.9861C177.093 66.6021 178.815 69.5883 178.817 72.8205L178.838 132.777C178.838 134.07 179.527 135.264 180.646 135.911L193.334 143.246Z" fill="black"/>
<path fill-rule="evenodd" clip-rule="evenodd" d="M56.8382 140.381C55.5803 139.653 54.8052 138.31 54.8046 136.855L54.7847 90.0454C54.7841 88.5891 55.56 87.2434 56.8199 86.5158L97.3164 63.1281C98.5746 62.4014 100.124 62.4018 101.382 63.129L141.933 86.571C143.191 87.2982 143.966 88.6418 143.967 90.0962L143.987 136.906C143.987 138.362 143.211 139.708 141.951 140.436L101.455 163.823C100.197 164.55 98.6469 164.55 97.389 163.823L56.8382 140.381ZM35.5742 81.6104C35.5729 78.5015 37.2295 75.6285 39.9191 74.0752L95.0137 42.2567C97.6998 40.7054 101.008 40.7061 103.694 42.2586L158.828 74.1313C161.514 75.6838 163.169 78.5524 163.17 81.6573L163.194 138.411C163.195 139.871 163.975 141.218 165.241 141.944L192.747 157.711C193.953 158.402 194.723 159.662 194.789 161.052L195.024 166.005C195.101 167.643 194.19 169.168 192.712 169.874L187.777 172.231C186.568 172.809 185.153 172.753 183.993 172.082L156.842 156.386C155.584 155.659 154.034 155.659 152.776 156.385L103.758 184.695C101.071 186.246 97.7629 186.245 95.0774 184.693L39.943 152.82C37.2575 151.268 35.6026 148.399 35.6013 145.294L35.5742 81.6104Z" fill="url(#paint0_linear_408_1056)"/>
<path d="M294.119 147.467C292.458 148.696 290.399 149.636 287.943 150.287C285.559 150.866 283.031 151.155 280.359 151.155C273.424 151.155 268.043 149.383 264.214 145.839C260.458 142.295 258.58 137.088 258.58 130.217V106.24H249.587V93.2216H258.58V79.0094H275.483V93.2216H290.002V106.24H275.483V130C275.483 132.459 276.097 134.376 277.325 135.75C278.625 137.052 280.431 137.703 282.742 137.703C285.415 137.703 287.69 136.979 289.568 135.533L294.119 147.467Z" fill="black"/>
<path d="M304.799 74.3444H322.352V135.967H360.383V150.287H304.799V74.3444Z" fill="black"/>
<path d="M393.146 91.0518C402.175 91.0518 409.11 93.2216 413.949 97.5612C418.789 101.828 421.209 108.302 421.209 116.981V150.287H405.39V143.019C402.211 148.443 396.288 151.155 387.62 151.155C383.141 151.155 379.241 150.396 375.918 148.877C372.668 147.358 370.175 145.261 368.442 142.585C366.708 139.909 365.841 136.871 365.841 133.471C365.841 128.047 367.864 123.78 371.909 120.67C376.026 117.56 382.347 116.005 390.87 116.005H404.306C404.306 112.316 403.186 109.495 400.947 107.542C398.708 105.517 395.349 104.505 390.87 104.505C387.764 104.505 384.695 105.011 381.661 106.023C378.699 106.964 376.171 108.266 374.076 109.929L368.008 98.1037C371.187 95.8615 374.979 94.1257 379.385 92.8962C383.864 91.6666 388.451 91.0518 393.146 91.0518ZM391.846 139.764C394.735 139.764 397.299 139.113 399.539 137.811C401.778 136.437 403.367 134.448 404.306 131.844V125.877H392.712C385.778 125.877 382.311 128.155 382.311 132.712C382.311 134.882 383.141 136.618 384.803 137.92C386.536 139.149 388.884 139.764 391.846 139.764Z" fill="black"/>
<path d="M470.962 91.0518C476.38 91.0518 481.292 92.3175 485.698 94.849C490.176 97.3081 493.68 100.816 496.208 105.373C498.736 109.857 500 115.1 500 121.104C500 127.107 498.736 132.387 496.208 136.943C493.68 141.427 490.176 144.935 485.698 147.467C481.292 149.926 476.38 151.155 470.962 151.155C462.944 151.155 456.84 148.624 452.651 143.561V150.287H436.507V69.7878H453.409V98.1037C457.671 93.4024 463.522 91.0518 470.962 91.0518ZM468.037 137.269C472.371 137.269 475.91 135.822 478.655 132.929C481.472 129.964 482.881 126.022 482.881 121.104C482.881 116.185 481.472 112.28 478.655 109.387C475.91 106.421 472.371 104.939 468.037 104.939C463.703 104.939 460.127 106.421 457.31 109.387C454.565 112.28 453.193 116.185 453.193 121.104C453.193 126.022 454.565 129.964 457.31 132.929C460.127 135.822 463.703 137.269 468.037 137.269Z" fill="black"/>
<defs>
<linearGradient id="paint0_linear_408_1056" x1="36.7379" y1="77.2593" x2="194.491" y2="168.221" gradientUnits="userSpaceOnUse">
<stop stop-color="#EA0025"/>
<stop offset="1" stop-color="#69001E"/>
</linearGradient>
</defs>
</svg>
