<svg width="32" height="32" viewBox="0 0 32 32" fill="none" xmlns="http://www.w3.org/2000/svg">
<g opacity="0.5">
<path fill-rule="evenodd" clip-rule="evenodd" d="M17.962 1.43189C16.7243 0.717363 15.1996 0.717363 13.962 1.43189L4.10555 7.12249C2.86794 7.83703 2.10555 9.15753 2.10555 10.5866V21.9678C2.10555 23.3969 2.86794 24.7174 4.10555 25.4319L13.962 31.1225C15.1996 31.837 16.7244 31.837 17.962 31.1225L27.8184 25.4319C29.056 24.7174 29.8184 23.3969 29.8184 21.9678V10.5866C29.8184 9.15753 29.056 7.83702 27.8184 7.12249L17.962 1.43189ZM23.2587 13.0036C23.2246 12.2308 23.0996 11.6994 22.9206 11.239C22.7359 10.7503 22.4517 10.3128 22.0794 9.94904C21.7157 9.57965 21.2753 9.29261 20.7922 9.1108C20.3292 8.93177 19.8006 8.80679 19.0278 8.77271C18.2491 8.73575 18.002 8.72721 16.0271 8.72721C14.0523 8.72721 13.8051 8.73575 13.0294 8.76983C12.2565 8.8039 11.7252 8.92899 11.2649 9.10792C10.7761 9.29261 10.3386 9.57676 9.97483 9.94904C9.60544 10.3128 9.31852 10.7532 9.1366 11.2362C8.95757 11.6994 8.83258 12.2279 8.79851 13.0007C8.76155 13.7794 8.753 14.0265 8.753 16.0014C8.753 17.9762 8.76155 18.2234 8.79562 18.9991C8.8297 19.772 8.95479 20.3033 9.13382 20.7637C9.31852 21.2524 9.60544 21.6899 9.97483 22.0537C10.3386 22.4231 10.779 22.7101 11.262 22.8919C11.7252 23.0709 12.2537 23.1959 13.0266 23.23C13.8023 23.2642 14.0495 23.2726 16.0244 23.2726C17.9992 23.2726 18.2464 23.2642 19.0221 23.23C19.795 23.1959 20.3263 23.0709 20.7866 22.8919C21.7641 22.514 22.537 21.7411 22.9149 20.7637C23.0938 20.3005 23.2189 19.772 23.253 18.9991C23.2871 18.2234 23.2956 17.9762 23.2956 16.0014C23.2956 14.0265 23.2927 13.7794 23.2587 13.0036ZM21.9488 18.9423C21.9175 19.6526 21.7982 20.0362 21.6987 20.292C21.4543 20.9256 20.9514 21.4285 20.3177 21.673C20.062 21.7724 19.6756 21.8917 18.968 21.9229C18.2009 21.9571 17.9708 21.9655 16.03 21.9655C14.0893 21.9655 13.8563 21.9571 13.0919 21.9229C12.3815 21.8917 11.9979 21.7724 11.7422 21.673C11.4269 21.5564 11.1398 21.3717 10.9069 21.1302C10.6653 20.8943 10.4806 20.6102 10.3641 20.2948C10.2646 20.0391 10.1453 19.6526 10.1141 18.9452C10.0799 18.178 10.0715 17.9478 10.0715 16.007C10.0715 14.0663 10.0799 13.8333 10.1141 13.069C10.1453 12.3586 10.2646 11.975 10.3641 11.7193C10.4806 11.4038 10.6653 11.1169 10.9097 10.8838C11.1455 10.6423 11.4296 10.4576 11.7451 10.3412C12.0008 10.2417 12.3873 10.1224 13.0948 10.0911C13.862 10.057 14.0922 10.0485 16.0328 10.0485C17.9764 10.0485 18.2065 10.057 18.9709 10.0911C19.6813 10.1224 20.0649 10.2417 20.3206 10.3412C20.636 10.4576 20.923 10.6423 21.156 10.8838C21.3975 11.1197 21.5822 11.4038 21.6987 11.7193C21.7982 11.975 21.9175 12.3614 21.9488 13.069C21.9829 13.8362 21.9914 14.0663 21.9914 16.007C21.9914 17.9478 21.9829 18.1751 21.9488 18.9423ZM16.0271 12.2648C13.9643 12.2648 12.2906 13.9384 12.2906 16.0014C12.2906 18.0643 13.9643 19.7379 16.0271 19.7379C18.0901 19.7379 19.7637 18.0643 19.7637 16.0014C19.7637 13.9384 18.0901 12.2648 16.0271 12.2648ZM16.0271 18.4252C14.6889 18.4252 13.6033 17.3397 13.6033 16.0014C13.6033 14.663 14.6889 13.5776 16.0271 13.5776C17.3655 13.5776 18.4509 14.663 18.4509 16.0014C18.4509 17.3397 17.3655 18.4252 16.0271 18.4252ZM19.9114 12.9894C20.3932 12.9894 20.7838 12.5988 20.7838 12.1171C20.7838 11.6353 20.3932 11.2448 19.9114 11.2448C19.4297 11.2448 19.0391 11.6353 19.0391 12.1171C19.0391 12.5988 19.4297 12.9894 19.9114 12.9894Z" fill="#68707F"/>
</g>
</svg>
