<svg width="32" height="32" viewBox="0 0 32 32" fill="none" xmlns="http://www.w3.org/2000/svg">
<g opacity="0.5">
<path fill-rule="evenodd" clip-rule="evenodd" d="M17.9615 1.43165C16.7239 0.717119 15.1991 0.717119 13.9615 1.43165L4.10506 7.12225C2.86745 7.83678 2.10506 9.15729 2.10506 10.5864V21.9676C2.10506 23.3966 2.86746 24.7171 4.10506 25.4317L13.9615 31.1222C15.1991 31.8368 16.7239 31.8368 17.9615 31.1222L27.8179 25.4317C29.0555 24.7171 29.8179 23.3966 29.8179 21.9675V10.5863C29.8179 9.15729 29.0555 7.83678 27.8179 7.12225L17.9615 1.43165ZM23.2688 23.2718V23.2724H20.2597V18.5445C20.2597 17.4179 20.2367 15.973 18.6918 15.973C17.1239 15.973 16.8839 17.1973 16.8839 18.4633V23.2718H13.8718V13.5609H16.7645V14.8851H16.807C17.2088 14.1221 18.193 13.3173 19.6597 13.3173C22.7106 13.3173 23.2724 15.3276 23.2724 17.9373V23.2718H23.2688ZM8.96696 13.5615H11.9827V23.2724H8.96696V13.5615ZM8.72696 10.4736C8.72696 9.50938 9.50939 8.72696 10.4736 8.72696C11.4373 8.72696 12.2197 9.50938 12.2203 10.4736C12.2203 11.4379 11.4379 12.2367 10.4736 12.2367C9.50939 12.2367 8.72696 11.4379 8.72696 10.4736Z" fill="#68707F"/>
</g>
</svg>
