<svg width="32" height="32" viewBox="0 0 32 32" fill="none" xmlns="http://www.w3.org/2000/svg">
<g opacity="0.5">
<path d="M17.9619 1.43189C16.7243 0.717363 15.1995 0.717363 13.9619 1.43189L4.10547 7.12232C2.86797 7.83684 2.10553 9.15723 2.10547 10.5862V21.968C2.10563 23.3969 2.868 24.7174 4.10547 25.4319L13.9619 31.1223C15.1995 31.8368 16.7243 31.8368 17.9619 31.1223L27.8184 25.4319C29.0558 24.7174 29.8182 23.3969 29.8184 21.968V10.5862C29.8183 9.15721 29.0559 7.83683 27.8184 7.12232L17.9619 1.43189ZM17.9053 15.7571L25 25.134H19.4453L15.0957 19.4465L10.1172 25.134H7.35547L13.8057 17.762L7 8.86549H12.6953L16.6279 14.0647L21.1758 8.86451H23.9355L17.9053 15.7571ZM20.207 23.4827H21.7363L11.8643 10.4299H10.2236L20.207 23.4827Z" fill="#68707F"/>
</g>
</svg>
